PathFileType	4	(x/y/z)	S02_BK_Cal_T01
DataRate	CameraRate	NumFrames	NumMarkers	Units	OrigDataRate	OrigDataStartFrame	OrigNumFrames
240	240	11	51	mm	240	1501	2400
Frame#	Time	Sternum			R.Acromium			L.Acromium			Top.Head			R.ASIS			L.ASIS			R.PSIS			L.PSIS			R.Great.Tro			L.Great.Tro			R.Iliac.Crest			L.Iliac.Crest			V.Sacral			R.Thigh.Upper.Post			R.Thigh.Lower.Ant			R.Thigh.Lower.Post			R.Thigh.Upper.Ant			R.Knee.Lat			R.Knee.Med			R.Shank.Upper.Post			R.Shank.Lower.Ant			R.Shank.Lower.Post			R.Shank.Upper.Ant			R.Ankle.Lat			R.Ankle.Med			R.Heel.Upper			R.Heel.Med			R.Heel.Lat			R.Toe.Lat			R.Toe.Med			R.Toe.Tip			L.Thigh.Upper.Post			L.Thigh.Lower.Ant			L.Thigh.Lower.Post			L.Thigh.Upper.Ant			L.Knee.Lat			L.Knee.Med			L.Shank.Upper.Post			L.Shank.Lower.Ant			L.Shank.Lower.Post			L.Shank.Upper.Ant			L.Ankle.Lat			L.Ankle.Med			L.Heel.Upper			L.Heel.Med			L.Heel.Lat			L.Toe.Lat			L.Toe.Med			L.Toe.Tip			Cervical.Spine			Back			
		X1	Y1	Z1	X2	Y2	Z2	X3	Y3	Z3	X4	Y4	Z4	X5	Y5	Z5	X6	Y6	Z6	X7	Y7	Z7	X8	Y8	Z8	X9	Y9	Z9	X10	Y10	Z10	X11	Y11	Z11	X12	Y12	Z12	X13	Y13	Z13	X14	Y14	Z14	X15	Y15	Z15	X16	Y16	Z16	X17	Y17	Z17	X18	Y18	Z18	X19	Y19	Z19	X20	Y20	Z20	X21	Y21	Z21	X22	Y22	Z22	X23	Y23	Z23	X24	Y24	Z24	X25	Y25	Z25	X26	Y26	Z26	X27	Y27	Z27	X28	Y28	Z28	X29	Y29	Z29	X30	Y30	Z30	X31	Y31	Z31	X32	Y32	Z32	X33	Y33	Z33	X34	Y34	Z34	X35	Y35	Z35	X36	Y36	Z36	X37	Y37	Z37	X38	Y38	Z38	X39	Y39	Z39	X40	Y40	Z40	X41	Y41	Z41	X42	Y42	Z42	X43	Y43	Z43	X44	Y44	Z44	X45	Y45	Z45	X46	Y46	Z46	X47	Y47	Z47	X48	Y48	Z48	X49	Y49	Z49	X50	Y50	Z50	X51	Y51	Z51	

1501	6.25	630.33	1068.7	316.59	527.98	1309	461.11	519.91	1307	165.37	575.13	1596.1	310.87	588.57	882.53	419.36	585.02	875.62	204.81	367.49	917.3	367.38	361.61	919.12	292.36	518.21	780.32	514.59	460.92	792.9	120.87	490.28	935.54	477.53	464.98	933.21	146.71	341.43	868.91	324.87	582.93	588.59	510.1	658.89	526.55	480.93	592.63	499.46	495.58	645.27	614.71	492.14	628.1	428.39	485.23	625.17	405.44	346.03	494.83	257.55	477.21	537.39	156.4	468.59	477.25	186.6	473.84	558.09	222.69	482.17	458.72	90.758	466.59	474.07	96.677	382.23	399.88	73.792	406.41	416.87	40.833	381.46	398.4	42.994	443.04	552.76	41.368	508.19	600.24	34.692	405.81	639.4	63.459	468.2	512.61	566.96	124.77	610.44	517.26	112.16	544.43	482.02	138.09	570.66	603.9	101.93	617.81	434.76	115.11	632.33	421.27	251.23	498.31	292.31	113.89	542.06	189.28	113.66	478	221.19	123.85	556.9	264.07	105.33	465.27	103.18	123.29	485.42	92.803	205.19	406.38	67.415	162.59	420.31	40.823	193.91	408.08	40.132	133.55	567.74	36.923	79.298	604.77	45.655	184.41	657.36	63.003	129.93	449	1368.4	314.13	372.92	1120.3	326.25
1502	6.2542	630.32	1068.7	316.61	527.96	1309	461.11	519.89	1307	165.37	575.16	1596.1	310.86	588.56	882.54	419.36	585.02	875.63	204.81	367.48	917.3	367.38	361.61	919.11	292.36	518.2	780.31	514.58	460.92	792.9	120.86	490.28	935.54	477.53	464.98	933.22	146.71	341.43	868.91	324.86	582.94	588.59	510.09	658.89	526.55	480.93	592.63	499.45	495.57	645.27	614.7	492.14	628.1	428.39	485.22	625.17	405.44	346.02	494.83	257.55	477.2	537.39	156.4	468.59	477.26	186.61	473.84	558.09	222.69	482.16	458.72	90.757	466.59	474.07	96.676	382.23	399.89	73.785	406.41	416.87	40.832	381.46	398.4	42.994	443.04	552.76	41.368	508.19	600.24	34.691	405.81	639.4	63.458	468.2	512.62	566.97	124.76	610.45	517.27	112.16	544.43	482.02	138.08	570.66	603.9	101.93	617.8	434.76	115.11	632.32	421.27	251.23	498.3	292.31	113.89	542.06	189.28	113.65	478	221.19	123.85	556.89	264.08	105.32	465.27	103.19	123.29	485.42	92.803	205.19	406.38	67.415	162.59	420.31	40.822	193.91	408.08	40.132	133.55	567.74	36.922	79.297	604.77	45.655	184.41	657.36	63.002	129.93	448.99	1368.4	314.13	372.9	1120.3	326.25
1503	6.2583	630.31	1068.7	316.62	527.93	1309	461.12	519.87	1307	165.37	575.18	1596.1	310.84	588.55	882.54	419.36	585.02	875.64	204.81	367.48	917.29	367.38	361.61	919.11	292.36	518.19	780.31	514.58	460.92	792.91	120.86	490.27	935.54	477.53	464.98	933.23	146.7	341.43	868.9	324.86	582.94	588.59	510.09	658.89	526.54	480.92	592.63	499.45	495.57	645.27	614.7	492.13	628.1	428.39	485.22	625.18	405.44	346.01	494.84	257.55	477.2	537.39	156.4	468.59	477.26	186.61	473.84	558.09	222.69	482.16	458.72	90.757	466.59	474.07	96.675	382.23	399.9	73.78	406.42	416.87	40.831	381.46	398.4	42.994	443.04	552.76	41.368	508.19	600.24	34.691	405.8	639.4	63.457	468.2	512.62	566.97	124.75	610.45	517.27	112.15	544.43	482.03	138.06	570.67	603.91	101.92	617.8	434.76	115.1	632.32	421.27	251.22	498.3	292.31	113.89	542.06	189.28	113.65	478	221.19	123.85	556.89	264.08	105.32	465.27	103.19	123.29	485.42	92.803	205.19	406.38	67.415	162.59	420.31	40.822	193.91	408.08	40.132	133.55	567.73	36.922	79.296	604.77	45.655	184.41	657.36	63.001	129.93	448.97	1368.4	314.13	372.88	1120.3	326.25
1504	6.2625	630.29	1068.8	316.63	527.91	1309	461.12	519.85	1307	165.38	575.21	1596.1	310.83	588.55	882.55	419.36	585.02	875.65	204.81	367.48	917.29	367.38	361.61	919.11	292.36	518.18	780.3	514.58	460.92	792.91	120.86	490.26	935.54	477.54	464.97	933.23	146.7	341.43	868.9	324.86	582.93	588.59	510.08	658.89	526.54	480.92	592.63	499.45	495.56	645.27	614.7	492.13	628.1	428.39	485.21	625.18	405.44	346	494.84	257.55	477.2	537.39	156.4	468.59	477.26	186.61	473.84	558.1	222.69	482.15	458.72	90.756	466.59	474.07	96.675	382.23	399.91	73.775	406.42	416.87	40.83	381.46	398.4	42.995	443.04	552.76	41.368	508.19	600.24	34.69	405.8	639.4	63.457	468.19	512.62	566.98	124.74	610.45	517.28	112.15	544.43	482.03	138.05	570.67	603.91	101.92	617.8	434.77	115.1	632.32	421.27	251.22	498.3	292.31	113.89	542.06	189.28	113.65	478	221.19	123.85	556.88	264.08	105.31	465.27	103.19	123.29	485.42	92.804	205.19	406.38	67.415	162.59	420.31	40.821	193.91	408.08	40.132	133.55	567.73	36.921	79.294	604.77	45.655	184.41	657.36	63	129.93	448.95	1368.4	314.14	372.87	1120.3	326.25
1505	6.2667	630.28	1068.8	316.64	527.89	1309	461.12	519.83	1307	165.38	575.23	1596.1	310.82	588.54	882.55	419.36	585.02	875.66	204.81	367.48	917.29	367.37	361.61	919.12	292.36	518.18	780.3	514.58	460.92	792.92	120.85	490.26	935.54	477.54	464.97	933.24	146.7	341.43	868.9	324.85	582.93	588.59	510.07	658.88	526.54	480.91	592.63	499.45	495.55	645.26	614.7	492.12	628.1	428.39	485.2	625.18	405.44	346	494.84	257.55	477.19	537.39	156.4	468.58	477.27	186.61	473.84	558.1	222.69	482.15	458.71	90.755	466.59	474.07	96.674	382.23	399.92	73.77	406.43	416.87	40.829	381.46	398.4	42.995	443.04	552.76	41.368	508.19	600.24	34.689	405.8	639.4	63.457	468.19	512.62	566.99	124.73	610.45	517.28	112.14	544.42	482.04	138.04	570.67	603.92	101.92	617.8	434.77	115.1	632.31	421.27	251.21	498.29	292.31	113.88	542.06	189.28	113.65	477.99	221.19	123.84	556.88	264.09	105.31	465.27	103.19	123.29	485.42	92.804	205.19	406.38	67.415	162.59	420.31	40.821	193.91	408.08	40.132	133.55	567.73	36.921	79.293	604.77	45.655	184.41	657.36	62.999	129.93	448.94	1368.4	314.14	372.85	1120.3	326.25
1506	6.2708	630.27	1068.8	316.65	527.87	1309	461.13	519.81	1307	165.39	575.25	1596.1	310.81	588.54	882.56	419.36	585.02	875.67	204.81	367.48	917.29	367.37	361.61	919.12	292.35	518.17	780.3	514.57	460.92	792.93	120.85	490.25	935.54	477.54	464.97	933.24	146.7	341.43	868.9	324.85	582.93	588.59	510.07	658.88	526.54	480.91	592.62	499.44	495.54	645.26	614.7	492.12	628.09	428.4	485.19	625.18	405.44	345.99	494.84	257.55	477.19	537.39	156.4	468.58	477.27	186.61	473.84	558.1	222.69	482.15	458.71	90.754	466.59	474.07	96.674	382.23	399.92	73.768	406.43	416.87	40.829	381.46	398.4	42.995	443.04	552.76	41.368	508.19	600.24	34.688	405.8	639.4	63.457	468.19	512.62	566.99	124.72	610.45	517.29	112.14	544.42	482.04	138.03	570.68	603.92	101.91	617.79	434.77	115.09	632.31	421.28	251.21	498.29	292.31	113.88	542.05	189.28	113.64	477.99	221.19	123.84	556.87	264.09	105.3	465.27	103.19	123.29	485.42	92.805	205.19	406.38	67.415	162.59	420.31	40.82	193.91	408.08	40.132	133.55	567.73	36.92	79.292	604.77	45.655	184.41	657.35	62.999	129.93	448.92	1368.4	314.14	372.84	1120.3	326.25
1507	6.275	630.26	1068.8	316.66	527.84	1309	461.13	519.79	1307	165.39	575.26	1596.1	310.8	588.53	882.57	419.36	585.02	875.68	204.81	367.48	917.29	367.37	361.61	919.12	292.35	518.16	780.29	514.57	460.93	792.94	120.85	490.24	935.54	477.54	464.97	933.25	146.7	341.43	868.9	324.85	582.92	588.59	510.06	658.88	526.54	480.9	592.62	499.44	495.53	645.25	614.7	492.12	628.09	428.4	485.19	625.18	405.44	345.98	494.84	257.55	477.19	537.4	156.41	468.58	477.27	186.61	473.84	558.1	222.7	482.14	458.71	90.754	466.59	474.07	96.673	382.23	399.92	73.766	406.43	416.87	40.828	381.46	398.4	42.995	443.04	552.76	41.369	508.19	600.24	34.687	405.8	639.4	63.457	468.19	512.62	567	124.71	610.45	517.29	112.13	544.42	482.05	138.02	570.68	603.93	101.91	617.79	434.77	115.09	632.31	421.28	251.2	498.28	292.31	113.88	542.05	189.28	113.64	477.99	221.19	123.84	556.86	264.1	105.3	465.27	103.19	123.29	485.42	92.807	205.19	406.38	67.415	162.59	420.31	40.819	193.91	408.08	40.133	133.55	567.73	36.919	79.291	604.77	45.655	184.41	657.35	62.998	129.93	448.9	1368.4	314.15	372.82	1120.3	326.25
1508	6.2792	630.24	1068.8	316.67	527.82	1309	461.14	519.77	1307	165.4	575.28	1596.1	310.79	588.53	882.58	419.36	585.02	875.69	204.81	367.48	917.29	367.36	361.61	919.13	292.35	518.15	780.29	514.57	460.93	792.94	120.85	490.23	935.54	477.54	464.97	933.26	146.7	341.43	868.91	324.84	582.91	588.59	510.05	658.87	526.54	480.9	592.61	499.44	495.53	645.25	614.69	492.12	628.08	428.4	485.18	625.18	405.45	345.97	494.84	257.55	477.18	537.4	156.41	468.58	477.27	186.62	473.84	558.1	222.7	482.14	458.71	90.754	466.59	474.08	96.673	382.23	399.92	73.765	406.43	416.87	40.828	381.46	398.4	42.995	443.04	552.76	41.369	508.19	600.24	34.687	405.8	639.4	63.457	468.19	512.62	567.01	124.7	610.44	517.3	112.13	544.41	482.05	138.01	570.68	603.94	101.9	617.78	434.78	115.08	632.3	421.28	251.19	498.27	292.31	113.88	542.05	189.29	113.64	477.98	221.19	123.84	556.85	264.1	105.3	465.27	103.18	123.29	485.42	92.808	205.19	406.38	67.415	162.58	420.31	40.819	193.91	408.08	40.133	133.55	567.73	36.918	79.29	604.77	45.655	184.41	657.35	62.998	129.93	448.88	1368.4	314.15	372.81	1120.3	326.25
1509	6.2833	630.23	1068.8	316.67	527.8	1309	461.14	519.75	1307	165.4	575.29	1596.1	310.78	588.52	882.59	419.35	585.02	875.7	204.81	367.48	917.3	367.36	361.61	919.13	292.34	518.14	780.29	514.57	460.93	792.95	120.84	490.23	935.54	477.54	464.97	933.26	146.69	341.42	868.91	324.83	582.91	588.59	510.05	658.86	526.54	480.9	592.6	499.44	495.52	645.24	614.69	492.11	628.08	428.41	485.18	625.18	405.45	345.97	494.83	257.56	477.18	537.4	156.41	468.58	477.27	186.62	473.84	558.1	222.7	482.14	458.71	90.754	466.59	474.08	96.673	382.23	399.92	73.766	406.43	416.87	40.829	381.46	398.4	42.995	443.04	552.76	41.369	508.19	600.24	34.686	405.8	639.4	63.458	468.19	512.62	567.02	124.7	610.44	517.3	112.12	544.41	482.06	138	570.67	603.94	101.9	617.77	434.78	115.08	632.3	421.28	251.19	498.27	292.3	113.88	542.04	189.29	113.63	477.98	221.19	123.83	556.84	264.11	105.29	465.27	103.18	123.28	485.42	92.809	205.19	406.38	67.415	162.58	420.31	40.819	193.9	408.08	40.133	133.55	567.73	36.918	79.289	604.77	45.655	184.41	657.35	62.998	129.93	448.86	1368.4	314.15	372.79	1120.3	326.25
1510	6.2875	630.21	1068.8	316.67	527.77	1309	461.15	519.73	1307	165.41	575.3	1596.1	310.78	588.52	882.59	419.35	585.02	875.71	204.81	367.48	917.3	367.35	361.6	919.14	292.34	518.13	780.29	514.57	460.93	792.96	120.84	490.22	935.54	477.54	464.97	933.27	146.69	341.42	868.92	324.83	582.9	588.6	510.04	658.85	526.55	480.9	592.59	499.44	495.51	645.23	614.7	492.11	628.07	428.41	485.17	625.18	405.45	345.96	494.83	257.56	477.18	537.39	156.41	468.58	477.26	186.62	473.84	558.09	222.7	482.14	458.71	90.755	466.59	474.08	96.673	382.22	399.92	73.768	406.43	416.87	40.829	381.46	398.4	42.994	443.04	552.76	41.37	508.19	600.24	34.686	405.8	639.4	63.459	468.19	512.61	567.03	124.69	610.43	517.31	112.12	544.4	482.07	137.99	570.67	603.95	101.9	617.77	434.79	115.08	632.29	421.29	251.19	498.26	292.3	113.87	542.04	189.29	113.63	477.97	221.19	123.83	556.84	264.11	105.29	465.27	103.18	123.28	485.42	92.81	205.19	406.38	67.415	162.58	420.31	40.819	193.9	408.07	40.133	133.55	567.73	36.917	79.288	604.77	45.656	184.41	657.35	62.999	129.93	448.85	1368.4	314.16	372.78	1120.3	326.25
1511	6.2917	630.18	1068.8	316.67	527.75	1309	461.15	519.71	1307	165.41	575.31	1596.1	310.77	588.51	882.6	419.35	585.03	875.72	204.82	367.48	917.31	367.35	361.6	919.15	292.33	518.12	780.29	514.56	460.93	792.97	120.84	490.22	935.54	477.54	464.97	933.28	146.68	341.42	868.92	324.82	582.89	588.6	510.04	658.84	526.55	480.9	592.58	499.44	495.5	645.22	614.7	492.11	628.06	428.42	485.17	625.18	405.46	345.96	494.83	257.56	477.17	537.39	156.41	468.58	477.26	186.62	473.84	558.09	222.71	482.13	458.72	90.756	466.59	474.08	96.673	382.22	399.92	73.771	406.43	416.87	40.829	381.46	398.4	42.994	443.04	552.76	41.37	508.19	600.24	34.685	405.8	639.4	63.46	468.19	512.61	567.04	124.68	610.42	517.32	112.11	544.39	482.07	137.98	570.67	603.96	101.89	617.76	434.79	115.07	632.29	421.29	251.18	498.25	292.3	113.87	542.03	189.29	113.63	477.97	221.19	123.83	556.83	264.12	105.28	465.27	103.18	123.28	485.42	92.811	205.18	406.38	67.415	162.58	420.31	40.819	193.9	408.07	40.133	133.55	567.73	36.917	79.287	604.77	45.656	184.41	657.35	63	129.93	448.83	1368.4	314.16	372.76	1120.3	326.25
